PathFileType	4	(X/Y/Z)	S01_0018_Gait_markers.trc
DataRate	CameraRate	NumFrames	NumMarkers	Units	OrigDataRate	OrigDataStartFrame	OrigNumFrames
250.000000	250.000000	4	54	mm	250.000000	226	363
Frame#	Time	HEAD_ANT			R_HEAD			L_HEAD			C7			R_BACK			L_BACK			STERNUM			R_ACROMION			R_HUM_PROX			R_HUM_ANT			R_HUM_POST			R_ELBOW_LAT			R_ELBOW_MED			R_FOREARM			R_WIRST_LAT			R_WRITS_MED			R_HAND			L_ACROMION			L_HUM_PROX			L_HUM_ANT			L_HUM_POST			L_ELBOW_LAT			L_ELBOW_MED			L_FOREARM			L_WRIST_LAT			L_WIRST_MED			L_HAND			R_ILIAC			SACRUM			L_ILIAC			R_GTROCH			R_THIGH__1			R_THIGH_2			R_THIGH_3			R_THIGH_4			R_SHANK_1			R_SHANK_2			R_SHANK_3			R_SHANK_4			R_HEEL			R_FOOT_LAT			R_FOOT_MED			L_GTROCH			L_THIGH_1			L_THIGH_2			L_THIGH_3			L_THIGH_4			L_SHANK_1			L_SHANK_2			L_SHANK_3			L_SHANK_4			L_HEEL			L_FOOT_LAT			L_FOOT_MED			
		X1	Y1	Z1	X2	Y2	Z2	X3	Y3	Z3	X4	Y4	Z4	X5	Y5	Z5	X6	Y6	Z6	X7	Y7	Z7	X8	Y8	Z8	X9	Y9	Z9	X10	Y10	Z10	X11	Y11	Z11	X12	Y12	Z12	X13	Y13	Z13	X14	Y14	Z14	X15	Y15	Z15	X16	Y16	Z16	X17	Y17	Z17	X18	Y18	Z18	X19	Y19	Z19	X20	Y20	Z20	X21	Y21	Z21	X22	Y22	Z22	X23	Y23	Z23	X24	Y24	Z24	X25	Y25	Z25	X26	Y26	Z26	X27	Y27	Z27	X28	Y28	Z28	X29	Y29	Z29	X30	Y30	Z30	X31	Y31	Z31	X32	Y32	Z32	X33	Y33	Z33	X34	Y34	Z34	X35	Y35	Z35	X36	Y36	Z36	X37	Y37	Z37	X38	Y38	Z38	X39	Y39	Z39	X40	Y40	Z40	X41	Y41	Z41	X42	Y42	Z42	X43	Y43	Z43	X44	Y44	Z44	X45	Y45	Z45	X46	Y46	Z46	X47	Y47	Z47	X48	Y48	Z48	X49	Y49	Z49	X50	Y50	Z50	X51	Y51	Z51	X52	Y52	Z52	X53	Y53	Z53	X54	Y54	Z54	

227	0.904	1350.9931640625	1742.367431640625	-369.310882568359	1294.133911132812	1695.760620117188	-287.395599365234	1289.367309570312	1691.939697265625	-435.4727172851559	1156.89599609375	1522.114013671875	-353.9946899414059	1089.537841796875	1324.226318359375	-284.5887756347653	1087.545654296875	1327.089599609375	-421.1789245605466	1339.923583984375	1362.63134765625	-357.3844299316403	1239.232177734375	1474.0341796875	-183.0499877929684	1212.6640625	1312.753784179688	-93.23406982421845	1275.17138671875	1227.828491210938	-99.14184570312473	1156.074829101562	1228.3974609375	-74.6938171386716	1202.827758789062	1122.808715820312	-75.59807586669896	1168.702514648438	1119.628051757812	-151.4273834228513	1305.188354492188	939.8402099609375	-91.07567596435526	1336.311157226562	873.9097900390625	-136.0888824462889	1276.488159179688	851.7281494140625	-86.45894622802716	1347.015625	785.0597534179688	-83.91609954833967	1235.094360351562	1475.8251953125	-522.8532104492184	1210.132690429688	1306.4287109375	-614.9631347656247	1269.208129882812	1223.574584960938	-612.6759033203123	1148.343139648438	1230.598388671875	-638.2587280273435	1203.276245117188	1122.9052734375	-641.6051025390623	1150.263305664062	1121.979858398438	-586.515197753906	1289.895141601562	939.9328613281251	-627.2093505859373	1309.972778320312	873.7929687500001	-574.3148193359373	1268.458862304688	860.3921508789064	-640.1471557617185	1335.561401367188	792.2154541015626	-624.0495605468748	1232.02685546875	1071.580444335938	-180.5604705810545	1105.171142578125	1045.51953125	-350.1998596191404	1224.46533203125	1071.774536132813	-524.4542846679685	1184.001831054688	919.8812866210938	-167.4352416992186	1256.977905273438	642.84423828125	-178.5075836181639	1311.398559570312	664.2867431640625	-168.1880493164061	1327.528076171875	560.4671020507812	-191.9433135986327	1262.127319335938	561.5756225585938	-192.9389801025389	1148.219360351562	415.8291015625001	-181.5726165771484	1171.752319335938	361.0872497558594	-190.5583343505859	1108.392944335938	304.5946655273438	-205.3422851562499	1069.600219726562	355.1030578613282	-199.6434936523437	901.277099609375	251.3253173828126	-281.7661743164062	953.505126953125	100.4411315917969	-195.6962432861328	999.73046875	67.50429534912115	-281.2508239746094	1198.903930664062	959.0844116210939	-530.9061279296873	1336.695678710938	680.4414062500001	-507.9661865234373	1282.0009765625	690.5158691406251	-528.9200439453124	1281.38427734375	588.1295166015626	-494.2622070312499	1343.403564453125	602.1702270507814	-481.5994262695311	1310.0009765625	323.8094482421876	-474.4243469238281	1251.920654296875	307.650848388672	-482.8975219726562	1240.324340820312	222.7192687988282	-465.0721740722656	1302.625854492188	223.9790496826173	-449.2266845703124	1175.375122070312	42.36587905883798	-391.7377319335938	1353.024536132812	20.24844932556163	-459.7188720703125	1386.964965820312	26.99434661865242	-349.8959350585938	
228	0.908	1356.685913085938	1743.3603515625	-368.907318115234	1299.489990234375	1696.7802734375	-287.142913818359	1294.76513671875	1692.991333007812	-435.2246704101559	1162.198974609375	1523.039184570312	-353.9829101562497	1096.353271484375	1324.694458007812	-284.6105041503903	1092.9931640625	1328.236694335938	-421.6913452148435	1345.227416992188	1363.78173828125	-357.2079162597653	1244.170043945312	1475.090942382812	-183.0735168457028	1216.87255859375	1313.672729492188	-93.06211090087861	1279.225952148438	1228.608520507812	-98.64260101318332	1160.095336914062	1229.446533203125	-75.24304962158176	1206.703247070312	1123.74169921875	-75.64231109619115	1172.685668945312	1120.729248046875	-151.4105987548826	1309.028442382812	940.7140502929688	-90.83502960205057	1339.468994140625	874.189453125	-137.3795318603514	1280.11181640625	852.5231323242188	-86.28945922851544	1350.61376953125	785.9561767578125	-83.41699981689436	1240.57275390625	1476.904907226563	-522.8386840820309	1216.197631835938	1307.810180664063	-615.2009887695309	1275.5625	1224.929321289063	-613.0438232421873	1154.564697265625	1231.688720703125	-638.663146972656	1210.067626953125	1124.125366210938	-642.0463867187498	1155.094970703125	1123.70361328125	-587.3578491210935	1297.4306640625	941.5380249023439	-626.8457031249998	1317.317993164062	875.6342163085939	-573.8044433593748	1276.513427734375	861.8885498046876	-640.045471191406	1343.80615234375	794.0670166015626	-623.124328613281	1238.310791015625	1073.177856445312	-181.306945800781	1110.646240234375	1046.6494140625	-350.693908691406	1230.080444335938	1072.951416015625	-524.7382202148435	1190.02001953125	921.1488037109375	-167.5819091796873	1265.614013671875	644.5382080078125	-178.5549011230467	1320.021606445312	666.3012084960938	-168.1657257080077	1336.885375976562	562.6112670898438	-192.4107360839843	1271.3896484375	562.830322265625	-193.1942443847655	1158.572875976562	416.4604492187501	-182.3699340820312	1183.01708984375	362.3471984863282	-191.1904754638671	1120.47509765625	304.4163818359376	-205.4930419921874	1080.622192382812	354.5773010253907	-200.7689056396484	913.1494140625	248.4539489746094	-282.5390014648437	968.739501953125	99.00678253173832	-195.9148864746093	1016.162719726562	66.58530426025396	-280.4051513671875	1204.104614257812	959.7647094726564	-531.1096191406248	1339.331909179688	680.2039184570314	-508.0259704589842	1284.764282226562	690.8004760742189	-528.9499511718749	1283.439086914062	588.1651000976564	-494.0926818847655	1345.421508789062	601.7416381835939	-481.4689636230468	1310.447631835938	323.8499755859376	-474.3577575683593	1252.678588867188	307.3247680664064	-482.4513854980468	1240.559326171875	223.0111083984376	-464.8958740234374	1303.229736328125	223.7893371582032	-448.8273925781249	1175.496215820312	42.57670974731454	-391.7094116210938	1353.013916015625	20.24152946472178	-459.6880187988281	1387.043212890625	26.92353820800789	-349.9183044433594	
229	0.912	1362.122436523438	1744.282592773438	-368.6586914062496	1304.798706054688	1697.685302734375	-287.0001220703121	1300.236694335938	1694.035034179688	-435.0538330078121	1167.541015625	1523.989624023438	-354.2521057128903	1101.478149414062	1325.630615234375	-285.1262512207028	1098.173217773438	1329.365478515625	-422.402648925781	1350.416748046875	1364.90771484375	-357.0331115722653	1249.090942382812	1476.007934570312	-183.0037994384762	1221.140747070312	1314.718994140625	-93.12969207763642	1283.299682617188	1229.436767578125	-97.95523834228489	1164.100708007812	1230.659057617188	-75.72165679931614	1210.5185546875	1124.721069335938	-75.75251007080053	1176.883544921875	1121.92138671875	-151.7821655273435	1312.699584960938	941.5482177734375	-90.65776824951151	1343.344482421875	875.0806274414062	-136.8941040039061	1283.60009765625	853.3770751953125	-86.03884887695294	1354.276123046875	786.9845581054688	-82.93286132812483	1246.106811523438	1478.1904296875	-522.8593749999997	1222.298217773438	1308.993530273438	-615.4385375976559	1281.957885742188	1226.461181640625	-613.3693847656248	1160.807373046875	1232.761962890625	-639.070129394531	1216.404296875	1125.638671875	-642.6041870117185	1161.520874023438	1124.765502929688	-588.2237548828123	1305.01953125	943.2834472656251	-626.3985595703123	1324.920288085938	877.4891967773439	-573.1598510742185	1284.601440429688	863.4448852539064	-639.5704345703123	1352.001586914062	795.9756469726564	-622.408020019531	1243.567504882812	1074.60302734375	-182.138961791992	1115.880615234375	1047.722412109375	-351.0602722167966	1235.769653320312	1073.855102539063	-525.0761718749998	1196.080444335938	922.5130615234375	-167.6887817382811	1274.28466796875	645.6818237304688	-179.1375274658202	1328.288330078125	668.1629028320312	-168.7677612304686	1345.634643554688	564.3307495117188	-192.7268066406249	1280.700561523438	564.6040649414062	-193.4274597167968	1168.937866210938	416.7878112792969	-183.1029052734374	1193.974609375	362.9495849609376	-191.9010772705077	1132.085327148438	304.2287597656251	-206.8412628173828	1091.525024414062	353.9824218750001	-201.7578582763671	925.3743286132812	245.4172363281251	-283.3265075683593	984.2059326171875	97.55819702148442	-196.204605102539	1032.294311523438	65.76028442382818	-280.5697631835938	1209.193481445312	960.4678955078126	-531.1688232421873	1341.942138671875	680.0417480468751	-508.0037536621092	1287.739624023438	690.7888183593751	-528.7753295898436	1285.09423828125	588.4135742187501	-493.8284606933593	1347.344360351562	601.2970581054689	-481.5429382324218	1310.851928710938	323.9061584472657	-474.3303222656249	1253.053466796875	307.5616760253907	-482.2119140624999	1240.78759765625	223.2637023925782	-464.7137756347656	1303.485961914062	223.9084930419923	-448.8661804199218	1175.58935546875	42.88690185546884	-391.5315856933594	1353.063842773438	20.23648452758799	-459.640869140625	1387.15283203125	26.90671920776375	-349.8670959472656	
230	0.916	1367.676635742188	1745.072509765625	-368.4771728515621	1310.30615234375	1698.585083007812	-286.9153137207027	1305.750854492188	1695.037475585938	-434.8962402343746	1172.8212890625	1525.003051757812	-354.5380859374997	1106.818969726562	1326.406372070312	-285.3916320800778	1103.761352539062	1330.445678710938	-422.8498840332028	1355.786743164062	1365.876708984375	-357.0629577636716	1254.055297851562	1476.924438476562	-183.0704345703122	1225.310791015625	1315.628784179688	-93.17630767822236	1287.390014648438	1230.33642578125	-97.51477050781223	1167.830810546875	1231.633178710938	-76.26103973388645	1214.252807617188	1125.854614257812	-75.87037658691381	1181.04443359375	1122.912963867188	-152.0699615478513	1316.489135742188	942.5084228515625	-90.49213409423807	1347.133544921875	875.8492431640625	-136.8111572265623	1287.214111328125	854.2192993164062	-85.93389129638653	1357.854125976562	787.8505859375	-82.5219650268553	1251.731079101562	1479.46435546875	-522.8980102539059	1228.399291992188	1310.461547851563	-615.8805541992184	1288.126220703125	1227.917114257813	-613.4719238281248	1167.141357421875	1233.96142578125	-639.6205444335935	1223.448364257812	1126.643798828125	-642.9337768554685	1168.089965820312	1125.998291015625	-588.6234741210935	1312.429809570312	944.9411621093751	-626.095275878906	1332.25146484375	879.3573608398439	-572.5656738281248	1292.599609375	865.0284423828126	-639.3281249999998	1360.284545898438	797.8862304687501	-621.510803222656	1249.179931640625	1075.986572265625	-182.7837677001951	1121.32666015625	1048.741455078125	-351.592590332031	1241.413452148438	1074.812744140625	-525.7445068359373	1202.1845703125	923.9046630859375	-167.6561279296873	1282.883178710938	647.4893798828125	-179.3056793212889	1336.67431640625	670.0875854492188	-169.5465087890624	1354.92919921875	566.500244140625	-193.0846862792968	1290.387451171875	566.158203125	-193.3261718749999	1179.09423828125	417.1002197265626	-183.8964233398437	1205.033813476562	363.6573486328126	-192.4031219482421	1143.928955078125	303.9435729980469	-207.2223510742187	1102.596313476562	353.4202575683594	-202.5171661376952	937.5027465820312	242.0293426513672	-284.0212097167968	999.7847290039062	95.75164031982426	-196.5567169189453	1048.572509765625	64.61510467529303	-280.8826599121094	1214.3740234375	961.0986328125001	-531.192443847656	1344.789916992188	679.6557617187501	-507.8861694335936	1290.410400390625	690.9808959960939	-528.8475341796874	1286.8564453125	588.6616821289064	-493.6264648437499	1349.328491210938	600.9442138671876	-481.5575866699218	1311.313354492188	324.076873779297	-474.2097473144531	1253.3916015625	307.7874450683595	-481.9833679199218	1240.87744140625	223.7242889404298	-464.7203979492187	1303.711181640625	223.9675140380861	-448.8681335449218	1175.704711914062	43.09500503540048	-391.3293151855469	1353.045288085938	20.24822998046885	-459.6168518066406	1387.248779296875	26.87008094787605	-349.889404296875	
